<svg xmlns="http://www.w3.org/2000/svg" viewBox="0 0 120 120">
  <circle cx="60" cy="60" r="58" fill="none" stroke="#ffffff" stroke-width="4"/>
  <circle cx="60" cy="60" r="50" fill="none" stroke="#ffffff" stroke-width="2"/>
  <path d="M60 10 L60 60 L10 60 A50 50 0 0 1 60 10Z" fill="#0066B1"/>
  <path d="M110 60 L60 60 L60 10 A50 50 0 0 1 110 60Z" fill="#ffffff"/>
  <path d="M60 110 L60 60 L110 60 A50 50 0 0 1 60 110Z" fill="#0066B1"/>
  <path d="M10 60 L60 60 L60 110 A50 50 0 0 1 10 60Z" fill="#ffffff"/>
  <text x="60" y="7" text-anchor="middle" fill="#ffffff" font-family="Arial, sans-serif" font-weight="bold" font-size="11">B M W</text>
</svg>
